<mxfile host="app.diagrams.net" modified="2021-06-28T09:30:07.741Z" agent="5.0 (Windows NT 10.0; Win64; x64) AppleWebKit/537.36 (KHTML, like Gecko) Chrome/91.0.4472.114 Safari/537.36" etag="ORMhzXQSiqXUEuimMoTH" version="14.8.1" type="github">
  <diagram id="kgpKYQtTHZ0yAKxKKP6v" name="Page-1">
    <mxGraphModel dx="1718" dy="935" grid="0" gridSize="10" guides="1" tooltips="1" connect="1" arrows="1" fold="1" page="1" pageScale="1" pageWidth="850" pageHeight="1100" math="0" shadow="0">
      <root>
        <mxCell id="0" />
        <mxCell id="1" parent="0" />
        <mxCell id="Pdf28RkhfNBAoE6ykQUz-179" value="" style="rounded=0;whiteSpace=wrap;html=1;strokeColor=#7D7D7D;" parent="1" vertex="1">
          <mxGeometry x="182.5" y="242" width="437.5" height="112" as="geometry" />
        </mxCell>
        <mxCell id="Pdf28RkhfNBAoE6ykQUz-164" value="EventInfo" style="shape=umlLifeline;perimeter=lifelinePerimeter;container=1;collapsible=0;recursiveResize=0;shadow=0;strokeWidth=1;fillColor=#e1d5e7;strokeColor=#9673a6;" parent="1" vertex="1">
          <mxGeometry x="370" y="50" width="102.5" height="420" as="geometry" />
        </mxCell>
        <mxCell id="Pdf28RkhfNBAoE6ykQUz-189" value="" style="rounded=0;whiteSpace=wrap;html=1;strokeColor=#7D7D7D;" parent="1" vertex="1">
          <mxGeometry x="206.25" y="393" width="747.5" height="157" as="geometry" />
        </mxCell>
        <mxCell id="Pdf28RkhfNBAoE6ykQUz-190" value="" style="shape=card;whiteSpace=wrap;html=1;rotation=0;size=40;direction=west;fontColor=#7D7D7D;strokeColor=#7D7D7D;" parent="1" vertex="1">
          <mxGeometry x="206.25" y="393" width="60" height="25" as="geometry" />
        </mxCell>
        <mxCell id="Pdf28RkhfNBAoE6ykQUz-191" value="loop" style="text;html=1;strokeColor=none;fillColor=none;align=center;verticalAlign=middle;whiteSpace=wrap;fontColor=#7D7D7D;" parent="1" vertex="1">
          <mxGeometry x="206.25" y="394.87" width="42.5" height="21.25" as="geometry" />
        </mxCell>
        <mxCell id="Pdf28RkhfNBAoE6ykQUz-146" value="" style="shape=card;whiteSpace=wrap;html=1;rotation=0;size=40;direction=west;fontColor=#7D7D7D;strokeColor=#7D7D7D;" parent="1" vertex="1">
          <mxGeometry x="182.5" y="242" width="60" height="25" as="geometry" />
        </mxCell>
        <mxCell id="Pdf28RkhfNBAoE6ykQUz-147" value="loop" style="text;html=1;strokeColor=none;fillColor=none;align=center;verticalAlign=middle;whiteSpace=wrap;fontColor=#7D7D7D;" parent="1" vertex="1">
          <mxGeometry x="182.5" y="243.87" width="42.5" height="21.25" as="geometry" />
        </mxCell>
        <mxCell id="Pdf28RkhfNBAoE6ykQUz-66" value="ThreadCount : 5 . 10... ...25&amp;nbsp; &amp;nbsp;fileCount : 1000" style="text;html=1;strokeColor=none;fillColor=none;align=left;verticalAlign=middle;whiteSpace=wrap;rounded=0;" parent="1" vertex="1">
          <mxGeometry x="1420" y="130" width="186" height="119.87" as="geometry" />
        </mxCell>
        <mxCell id="Pdf28RkhfNBAoE6ykQUz-68" value="FileServer" style="shape=umlLifeline;perimeter=lifelinePerimeter;container=1;collapsible=0;recursiveResize=0;shadow=0;strokeWidth=1;" parent="1" vertex="1">
          <mxGeometry x="70" y="50" width="145" height="350" as="geometry" />
        </mxCell>
        <mxCell id="Pdf28RkhfNBAoE6ykQUz-69" value="EventQueue" style="shape=umlLifeline;perimeter=lifelinePerimeter;container=1;collapsible=0;recursiveResize=0;shadow=0;strokeWidth=1;fillColor=#e1d5e7;strokeColor=#9673a6;" parent="1" vertex="1">
          <mxGeometry x="520" y="50" width="120" height="480" as="geometry" />
        </mxCell>
        <mxCell id="Pdf28RkhfNBAoE6ykQUz-73" value="&lt;font style=&quot;font-size: 9px&quot;&gt;new ArrayBlockingQueue&lt;br&gt;&amp;lt;eventInfo&amp;gt;(100)&lt;/font&gt;" style="text;html=1;strokeColor=none;fillColor=none;align=left;verticalAlign=middle;whiteSpace=wrap;" parent="1" vertex="1">
          <mxGeometry x="583.75" y="120" width="210" height="10" as="geometry" />
        </mxCell>
        <mxCell id="Pdf28RkhfNBAoE6ykQUz-76" value="FileStory" style="shape=umlLifeline;perimeter=lifelinePerimeter;container=1;collapsible=0;recursiveResize=0;shadow=0;strokeWidth=1;" parent="1" vertex="1">
          <mxGeometry x="1351" y="50" width="120" height="320" as="geometry" />
        </mxCell>
        <mxCell id="Pdf28RkhfNBAoE6ykQUz-77" value="EventRouter" style="shape=umlLifeline;perimeter=lifelinePerimeter;container=1;collapsible=0;recursiveResize=0;shadow=0;strokeWidth=1;" parent="1" vertex="1">
          <mxGeometry x="675" y="50" width="120" height="470" as="geometry" />
        </mxCell>
        <mxCell id="Pdf28RkhfNBAoE6ykQUz-78" value="&lt;font style=&quot;font-size: 18px&quot;&gt;&lt;b&gt;서버&lt;/b&gt;&lt;/font&gt;" style="text;html=1;strokeColor=none;fillColor=none;align=center;verticalAlign=middle;whiteSpace=wrap;" parent="1" vertex="1">
          <mxGeometry x="102.5" y="20" width="80" height="20" as="geometry" />
        </mxCell>
        <mxCell id="Pdf28RkhfNBAoE6ykQUz-79" value="&lt;font style=&quot;font-size: 18px&quot;&gt;&lt;b&gt;클라이언트&lt;/b&gt;&lt;/font&gt;" style="text;html=1;strokeColor=none;fillColor=none;align=center;verticalAlign=middle;whiteSpace=wrap;" parent="1" vertex="1">
          <mxGeometry x="1361" y="20" width="100" height="20" as="geometry" />
        </mxCell>
        <mxCell id="Pdf28RkhfNBAoE6ykQUz-80" value="" style="points=[];perimeter=orthogonalPerimeter;shadow=0;strokeWidth=1;" parent="1" vertex="1">
          <mxGeometry x="1406" y="203.13" width="10" height="465" as="geometry" />
        </mxCell>
        <mxCell id="Pdf28RkhfNBAoE6ykQUz-87" value="accept()" style="text;html=1;strokeColor=none;fillColor=none;align=center;verticalAlign=middle;whiteSpace=wrap;" parent="1" vertex="1">
          <mxGeometry x="337" y="275" width="40" height="20" as="geometry" />
        </mxCell>
        <mxCell id="Pdf28RkhfNBAoE6ykQUz-90" value="[eventInfo != null]" style="text;html=1;strokeColor=none;fillColor=none;align=center;verticalAlign=middle;whiteSpace=wrap;fontColor=#7D7D7D;" parent="1" vertex="1">
          <mxGeometry x="277" y="233" width="160" height="20" as="geometry" />
        </mxCell>
        <mxCell id="Pdf28RkhfNBAoE6ykQUz-96" value="" style="endArrow=classic;html=1;dashed=1;startArrow=none;exitX=-0.183;exitY=0.085;exitDx=0;exitDy=0;exitPerimeter=0;" parent="1" source="Pdf28RkhfNBAoE6ykQUz-100" target="Pdf28RkhfNBAoE6ykQUz-163" edge="1">
          <mxGeometry width="50" height="50" relative="1" as="geometry">
            <mxPoint x="847" y="296" as="sourcePoint" />
            <mxPoint x="300" y="297" as="targetPoint" />
            <Array as="points" />
          </mxGeometry>
        </mxCell>
        <mxCell id="Pdf28RkhfNBAoE6ykQUz-97" value="FileClientRunner" style="shape=umlLifeline;perimeter=lifelinePerimeter;container=1;collapsible=0;recursiveResize=0;shadow=0;strokeWidth=1;" parent="1" vertex="1">
          <mxGeometry x="1190" y="50" width="120" height="320" as="geometry" />
        </mxCell>
        <mxCell id="Pdf28RkhfNBAoE6ykQUz-98" value="" style="points=[];perimeter=orthogonalPerimeter;shadow=0;strokeWidth=1;" parent="1" vertex="1">
          <mxGeometry x="1245" y="238" width="10" height="415" as="geometry" />
        </mxCell>
        <mxCell id="Pdf28RkhfNBAoE6ykQUz-99" value="FileClient" style="shape=umlLifeline;perimeter=lifelinePerimeter;container=1;collapsible=0;recursiveResize=0;shadow=0;strokeWidth=1;" parent="1" vertex="1">
          <mxGeometry x="1033" y="50" width="120" height="304" as="geometry" />
        </mxCell>
        <mxCell id="Pdf28RkhfNBAoE6ykQUz-100" value="" style="points=[];perimeter=orthogonalPerimeter;shadow=0;strokeWidth=1;" parent="1" vertex="1">
          <mxGeometry x="1088" y="275" width="10" height="255" as="geometry" />
        </mxCell>
        <mxCell id="Pdf28RkhfNBAoE6ykQUz-101" value="" style="endArrow=classic;html=1;" parent="1" edge="1">
          <mxGeometry width="50" height="50" relative="1" as="geometry">
            <mxPoint x="1406" y="243.8800000000001" as="sourcePoint" />
            <mxPoint x="1257" y="243.8800000000001" as="targetPoint" />
            <Array as="points" />
          </mxGeometry>
        </mxCell>
        <mxCell id="Pdf28RkhfNBAoE6ykQUz-102" value="start()" style="text;html=1;strokeColor=none;fillColor=none;align=center;verticalAlign=middle;whiteSpace=wrap;rounded=0;" parent="1" vertex="1">
          <mxGeometry x="1316" y="207.88" width="40" height="54" as="geometry" />
        </mxCell>
        <mxCell id="Pdf28RkhfNBAoE6ykQUz-103" value="" style="endArrow=classic;html=1;" parent="1" target="Pdf28RkhfNBAoE6ykQUz-100" edge="1">
          <mxGeometry width="50" height="50" relative="1" as="geometry">
            <mxPoint x="1244" y="280" as="sourcePoint" />
            <mxPoint x="1295" y="266" as="targetPoint" />
            <Array as="points">
              <mxPoint x="1170" y="280" />
            </Array>
          </mxGeometry>
        </mxCell>
        <mxCell id="Pdf28RkhfNBAoE6ykQUz-104" value="start()" style="text;html=1;strokeColor=none;fillColor=none;align=center;verticalAlign=middle;whiteSpace=wrap;rounded=0;" parent="1" vertex="1">
          <mxGeometry x="1153" y="260" width="40" height="20" as="geometry" />
        </mxCell>
        <mxCell id="Pdf28RkhfNBAoE6ykQUz-105" value="&lt;pre style=&quot;background-color: #2b2b2b ; color: #a9b7c6 ; font-family: &amp;quot;jetbrains mono&amp;quot; , monospace ; font-size: 9.8pt&quot;&gt;&lt;span style=&quot;color: #b0d99a&quot;&gt; ==&amp;gt; &lt;/span&gt;&lt;span style=&quot;color: #b0d99a ; font-family: &amp;quot;맑은 고딕&amp;quot;&quot;&gt;처리 시간&lt;/span&gt;&lt;span style=&quot;color: #b0d99a&quot;&gt;: %f&lt;/span&gt;&lt;/pre&gt;" style="text;html=1;strokeColor=none;fillColor=none;align=center;verticalAlign=middle;whiteSpace=wrap;rounded=0;" parent="1" vertex="1">
          <mxGeometry x="1223" y="418" width="40" height="20" as="geometry" />
        </mxCell>
        <mxCell id="Pdf28RkhfNBAoE6ykQUz-106" style="edgeStyle=orthogonalEdgeStyle;rounded=0;orthogonalLoop=1;jettySize=auto;html=1;exitX=0.5;exitY=1;exitDx=0;exitDy=0;" parent="1" source="Pdf28RkhfNBAoE6ykQUz-105" target="Pdf28RkhfNBAoE6ykQUz-105" edge="1">
          <mxGeometry relative="1" as="geometry" />
        </mxCell>
        <mxCell id="Pdf28RkhfNBAoE6ykQUz-107" value="" style="endArrow=classic;html=1;entryX=1;entryY=0.189;entryDx=0;entryDy=0;entryPerimeter=0;" parent="1" edge="1">
          <mxGeometry width="50" height="50" relative="1" as="geometry">
            <mxPoint x="1245" y="468" as="sourcePoint" />
            <mxPoint x="1098" y="468.1500000000001" as="targetPoint" />
          </mxGeometry>
        </mxCell>
        <mxCell id="Pdf28RkhfNBAoE6ykQUz-108" value="join()" style="text;html=1;strokeColor=none;fillColor=none;align=center;verticalAlign=middle;whiteSpace=wrap;rounded=0;" parent="1" vertex="1">
          <mxGeometry x="1155" y="445" width="40" height="20" as="geometry" />
        </mxCell>
        <mxCell id="Pdf28RkhfNBAoE6ykQUz-109" value="&lt;pre style=&quot;background-color: #2b2b2b ; color: #a9b7c6 ; font-family: &amp;#34;jetbrains mono&amp;#34; , monospace ; font-size: 9.8pt&quot;&gt;&lt;span style=&quot;color: #b0d99a&quot;&gt;## id:%s, threadCo,....&lt;/span&gt;&lt;/pre&gt;" style="text;html=1;strokeColor=none;fillColor=none;align=center;verticalAlign=middle;whiteSpace=wrap;rounded=0;" parent="1" vertex="1">
          <mxGeometry x="1158" y="233" width="40" height="20" as="geometry" />
        </mxCell>
        <mxCell id="Pdf28RkhfNBAoE6ykQUz-111" style="edgeStyle=orthogonalEdgeStyle;rounded=0;orthogonalLoop=1;jettySize=auto;html=1;exitX=0.5;exitY=1;exitDx=0;exitDy=0;" parent="1" source="Pdf28RkhfNBAoE6ykQUz-109" target="Pdf28RkhfNBAoE6ykQUz-109" edge="1">
          <mxGeometry relative="1" as="geometry" />
        </mxCell>
        <mxCell id="Pdf28RkhfNBAoE6ykQUz-112" value="999회 반복" style="text;html=1;strokeColor=none;fillColor=none;align=center;verticalAlign=middle;whiteSpace=wrap;rounded=0;" parent="1" vertex="1">
          <mxGeometry x="998" y="395" width="77" height="20" as="geometry" />
        </mxCell>
        <mxCell id="Pdf28RkhfNBAoE6ykQUz-114" value="" style="endArrow=classic;html=1;fillColor=#fff2cc;strokeColor=#d6b656;" parent="1" edge="1">
          <mxGeometry width="50" height="50" relative="1" as="geometry">
            <mxPoint x="1255" y="340" as="sourcePoint" />
            <mxPoint x="1259" y="269" as="targetPoint" />
            <Array as="points">
              <mxPoint x="1355" y="340" />
              <mxPoint x="1355" y="269" />
            </Array>
          </mxGeometry>
        </mxCell>
        <mxCell id="Pdf28RkhfNBAoE6ykQUz-115" value="스레드 갯 수 만큼 반복" style="text;html=1;strokeColor=none;fillColor=none;align=center;verticalAlign=middle;whiteSpace=wrap;rounded=0;" parent="1" vertex="1">
          <mxGeometry x="1267" y="301" width="73" height="20" as="geometry" />
        </mxCell>
        <mxCell id="Pdf28RkhfNBAoE6ykQUz-116" value="" style="endArrow=classic;html=1;entryX=0.953;entryY=0.986;entryDx=0;entryDy=0;entryPerimeter=0;" parent="1" target="Pdf28RkhfNBAoE6ykQUz-98" edge="1">
          <mxGeometry width="50" height="50" relative="1" as="geometry">
            <mxPoint x="1406" y="647" as="sourcePoint" />
            <mxPoint x="1267" y="403" as="targetPoint" />
          </mxGeometry>
        </mxCell>
        <mxCell id="Pdf28RkhfNBAoE6ykQUz-117" value="join()" style="text;html=1;strokeColor=none;fillColor=none;align=center;verticalAlign=middle;whiteSpace=wrap;rounded=0;" parent="1" vertex="1">
          <mxGeometry x="1321" y="628" width="40" height="20" as="geometry" />
        </mxCell>
        <mxCell id="Pdf28RkhfNBAoE6ykQUz-118" value="" style="endArrow=classic;html=1;fillColor=#fff2cc;strokeColor=#d6b656;entryX=1.512;entryY=0.03;entryDx=0;entryDy=0;entryPerimeter=0;exitX=1.1;exitY=0.966;exitDx=0;exitDy=0;exitPerimeter=0;" parent="1" edge="1">
          <mxGeometry width="50" height="50" relative="1" as="geometry">
            <mxPoint x="1416.9999999999995" y="667.19" as="sourcePoint" />
            <mxPoint x="1421.12" y="231.95000000000005" as="targetPoint" />
            <Array as="points">
              <mxPoint x="1559" y="667" />
              <mxPoint x="1559" y="232" />
            </Array>
          </mxGeometry>
        </mxCell>
        <mxCell id="Pdf28RkhfNBAoE6ykQUz-119" value="5회 반복" style="text;html=1;strokeColor=none;fillColor=none;align=center;verticalAlign=middle;whiteSpace=wrap;rounded=0;" parent="1" vertex="1">
          <mxGeometry x="1448" y="435.5" width="75" height="20" as="geometry" />
        </mxCell>
        <mxCell id="Pdf28RkhfNBAoE6ykQUz-122" value="FileHandler" style="shape=umlLifeline;perimeter=lifelinePerimeter;container=1;collapsible=0;recursiveResize=0;shadow=0;strokeWidth=1;strokeColor=#006900;" parent="1" vertex="1">
          <mxGeometry x="860" y="50" width="120" height="410" as="geometry" />
        </mxCell>
        <mxCell id="Pdf28RkhfNBAoE6ykQUz-123" value="" style="endArrow=classic;html=1;entryX=0.033;entryY=0.055;entryDx=0;entryDy=0;entryPerimeter=0;" parent="1" target="Pdf28RkhfNBAoE6ykQUz-127" edge="1">
          <mxGeometry width="50" height="50" relative="1" as="geometry">
            <mxPoint x="735" y="464" as="sourcePoint" />
            <mxPoint x="915" y="470" as="targetPoint" />
          </mxGeometry>
        </mxCell>
        <mxCell id="Pdf28RkhfNBAoE6ykQUz-124" value="" style="endArrow=classic;html=1;dashed=1;" parent="1" source="Pdf28RkhfNBAoE6ykQUz-127" edge="1">
          <mxGeometry width="50" height="50" relative="1" as="geometry">
            <mxPoint x="505.00000000000006" y="638.1039999999999" as="sourcePoint" />
            <mxPoint x="740" y="520.83" as="targetPoint" />
          </mxGeometry>
        </mxCell>
        <mxCell id="Pdf28RkhfNBAoE6ykQUz-125" value="&lt;font style=&quot;font-size: 8px&quot;&gt;new FileStoreHandler()&lt;br&gt;new FileDeleteHandler()&lt;br&gt;&lt;/font&gt;" style="text;html=1;strokeColor=none;fillColor=none;align=center;verticalAlign=middle;whiteSpace=wrap;rounded=0;" parent="1" vertex="1">
          <mxGeometry x="675" y="443.00000000000006" width="300" height="10" as="geometry" />
        </mxCell>
        <mxCell id="Pdf28RkhfNBAoE6ykQUz-126" value="&lt;font color=&quot;#000000&quot;&gt;&lt;span style=&quot;font-size: 8px&quot;&gt;handle(request)&lt;/span&gt;&lt;/font&gt;" style="text;html=1;strokeColor=none;fillColor=none;align=center;verticalAlign=middle;whiteSpace=wrap;rounded=0;fontColor=#7D7D7D;" parent="1" vertex="1">
          <mxGeometry x="805" y="500.83000000000004" width="40" height="20" as="geometry" />
        </mxCell>
        <mxCell id="Pdf28RkhfNBAoE6ykQUz-130" value="&lt;font color=&quot;#000000&quot;&gt;closeSocket()&lt;/font&gt;" style="text;html=1;strokeColor=none;fillColor=none;align=center;verticalAlign=middle;whiteSpace=wrap;rounded=0;fontColor=#7D7D7D;" parent="1" vertex="1">
          <mxGeometry x="993" y="530" width="40" height="20" as="geometry" />
        </mxCell>
        <mxCell id="Pdf28RkhfNBAoE6ykQUz-140" value="&lt;font style=&quot;font-size: 10px&quot;&gt;newInstance(i,eventQueue)&lt;/font&gt;" style="text;html=1;align=center;verticalAlign=middle;resizable=0;points=[];autosize=1;strokeColor=none;" parent="1" vertex="1">
          <mxGeometry x="147.5" y="160" width="140" height="20" as="geometry" />
        </mxCell>
        <mxCell id="Pdf28RkhfNBAoE6ykQUz-144" value="" style="points=[];perimeter=orthogonalPerimeter;shadow=0;strokeWidth=1;" parent="1" vertex="1">
          <mxGeometry x="730" y="200" width="10" height="324" as="geometry" />
        </mxCell>
        <mxCell id="Pdf28RkhfNBAoE6ykQUz-148" value="" style="endArrow=classic;html=1;dashed=1;" parent="1" edge="1">
          <mxGeometry width="50" height="50" relative="1" as="geometry">
            <mxPoint x="577.5" y="418" as="sourcePoint" />
            <mxPoint x="290" y="418" as="targetPoint" />
          </mxGeometry>
        </mxCell>
        <mxCell id="Pdf28RkhfNBAoE6ykQUz-149" value="&lt;font style=&quot;font-size: 10px&quot;&gt;take()&lt;/font&gt;" style="text;html=1;align=center;verticalAlign=middle;resizable=0;points=[];autosize=1;strokeColor=none;" parent="1" vertex="1">
          <mxGeometry x="333.75" y="392.5" width="40" height="20" as="geometry" />
        </mxCell>
        <mxCell id="Pdf28RkhfNBAoE6ykQUz-163" value="FileServerReactor" style="shape=umlLifeline;perimeter=lifelinePerimeter;container=1;collapsible=0;recursiveResize=0;shadow=0;strokeWidth=1;" parent="1" vertex="1">
          <mxGeometry x="237.5" y="50" width="102.5" height="350" as="geometry" />
        </mxCell>
        <mxCell id="Pdf28RkhfNBAoE6ykQUz-165" value="" style="endArrow=classic;html=1;entryX=0.51;entryY=0.146;entryDx=0;entryDy=0;entryPerimeter=0;" parent="1" target="Pdf28RkhfNBAoE6ykQUz-69" edge="1">
          <mxGeometry width="50" height="50" relative="1" as="geometry">
            <mxPoint x="145" y="120" as="sourcePoint" />
            <mxPoint x="580" y="121" as="targetPoint" />
          </mxGeometry>
        </mxCell>
        <mxCell id="Pdf28RkhfNBAoE6ykQUz-166" value="&lt;font style=&quot;font-size: 9px&quot;&gt;newInstance()&lt;/font&gt;" style="text;html=1;strokeColor=none;fillColor=none;align=center;verticalAlign=middle;whiteSpace=wrap;rounded=0;" parent="1" vertex="1">
          <mxGeometry x="182.5" y="100" width="40" height="20" as="geometry" />
        </mxCell>
        <mxCell id="Pdf28RkhfNBAoE6ykQUz-167" value="" style="endArrow=classic;html=1;exitX=0.502;exitY=0.307;exitDx=0;exitDy=0;exitPerimeter=0;" parent="1" source="Pdf28RkhfNBAoE6ykQUz-68" edge="1">
          <mxGeometry width="50" height="50" relative="1" as="geometry">
            <mxPoint x="790" y="450" as="sourcePoint" />
            <mxPoint x="290" y="157" as="targetPoint" />
          </mxGeometry>
        </mxCell>
        <mxCell id="Pdf28RkhfNBAoE6ykQUz-168" value="&lt;font style=&quot;font-size: 9px&quot;&gt;new FileServerReactor(eventQueue)&lt;/font&gt;" style="text;html=1;strokeColor=none;fillColor=none;align=center;verticalAlign=middle;whiteSpace=wrap;rounded=0;" parent="1" vertex="1">
          <mxGeometry x="123.75" y="140" width="216.25" height="20" as="geometry" />
        </mxCell>
        <mxCell id="Pdf28RkhfNBAoE6ykQUz-169" value="&lt;font size=&quot;1&quot;&gt;servicePort : 3333&lt;br&gt;&lt;/font&gt;" style="text;html=1;strokeColor=none;fillColor=none;align=center;verticalAlign=middle;whiteSpace=wrap;rounded=0;" parent="1" vertex="1">
          <mxGeometry x="279" y="150" width="110" height="20" as="geometry" />
        </mxCell>
        <mxCell id="Pdf28RkhfNBAoE6ykQUz-170" value="" style="endArrow=classic;html=1;exitX=0.52;exitY=0.495;exitDx=0;exitDy=0;exitPerimeter=0;entryX=-0.092;entryY=0.012;entryDx=0;entryDy=0;entryPerimeter=0;" parent="1" source="Pdf28RkhfNBAoE6ykQUz-68" target="Pdf28RkhfNBAoE6ykQUz-173" edge="1">
          <mxGeometry width="50" height="50" relative="1" as="geometry">
            <mxPoint x="142.78999999999996" y="200.58000000000004" as="sourcePoint" />
            <mxPoint x="290" y="200.13" as="targetPoint" />
          </mxGeometry>
        </mxCell>
        <mxCell id="Pdf28RkhfNBAoE6ykQUz-171" value="&lt;font style=&quot;font-size: 9px&quot;&gt;start()&lt;/font&gt;" style="text;html=1;strokeColor=none;fillColor=none;align=center;verticalAlign=middle;whiteSpace=wrap;rounded=0;" parent="1" vertex="1">
          <mxGeometry x="109.36999999999999" y="203.13" width="216.25" height="20" as="geometry" />
        </mxCell>
        <mxCell id="Pdf28RkhfNBAoE6ykQUz-173" value="" style="points=[];perimeter=orthogonalPerimeter;shadow=0;strokeWidth=1;" parent="1" vertex="1">
          <mxGeometry x="283.75" y="220" width="10" height="300" as="geometry" />
        </mxCell>
        <mxCell id="Pdf28RkhfNBAoE6ykQUz-180" value="" style="endArrow=classic;html=1;exitX=1.033;exitY=0.219;exitDx=0;exitDy=0;exitPerimeter=0;" parent="1" edge="1">
          <mxGeometry width="50" height="50" relative="1" as="geometry">
            <mxPoint x="293.7500000000004" y="460.4459999999999" as="sourcePoint" />
            <mxPoint x="730" y="461.83000000000004" as="targetPoint" />
          </mxGeometry>
        </mxCell>
        <mxCell id="Pdf28RkhfNBAoE6ykQUz-181" value="route(eventInfo)" style="text;html=1;strokeColor=none;fillColor=none;align=center;verticalAlign=middle;whiteSpace=wrap;" parent="1" vertex="1">
          <mxGeometry x="640" y="438.00000000000006" width="40" height="20" as="geometry" />
        </mxCell>
        <mxCell id="Pdf28RkhfNBAoE6ykQUz-182" value="" style="endArrow=classic;html=1;entryX=0.503;entryY=0.273;entryDx=0;entryDy=0;entryPerimeter=0;" parent="1" target="Pdf28RkhfNBAoE6ykQUz-77" edge="1">
          <mxGeometry width="50" height="50" relative="1" as="geometry">
            <mxPoint x="139.64" y="179.27" as="sourcePoint" />
            <mxPoint x="574.9999999999997" y="179.1700000000001" as="targetPoint" />
          </mxGeometry>
        </mxCell>
        <mxCell id="Pdf28RkhfNBAoE6ykQUz-183" value="" style="endArrow=classic;html=1;exitX=1.033;exitY=0.219;exitDx=0;exitDy=0;exitPerimeter=0;" parent="1" edge="1">
          <mxGeometry width="50" height="50" relative="1" as="geometry">
            <mxPoint x="293.75000000000045" y="342.616" as="sourcePoint" />
            <mxPoint x="580" y="344" as="targetPoint" />
          </mxGeometry>
        </mxCell>
        <mxCell id="Pdf28RkhfNBAoE6ykQUz-184" value="add(eventInfo)" style="text;html=1;strokeColor=none;fillColor=none;align=center;verticalAlign=middle;whiteSpace=wrap;" parent="1" vertex="1">
          <mxGeometry x="490" y="321" width="50" height="20" as="geometry" />
        </mxCell>
        <mxCell id="Pdf28RkhfNBAoE6ykQUz-91" value="&lt;pre style=&quot;background-color: #2b2b2b ; color: #a9b7c6 ; font-family: &amp;#34;jetbrains mono&amp;#34; , monospace ; font-size: 9.8pt&quot;&gt;&lt;pre style=&quot;font-family: &amp;#34;jetbrains mono&amp;#34; , monospace ; font-size: 9.8pt&quot;&gt;&lt;span style=&quot;color: #b0d99a&quot;&gt; File processing: %05d&lt;/span&gt;&lt;/pre&gt;&lt;/pre&gt;" style="text;html=1;strokeColor=none;fillColor=none;align=center;verticalAlign=middle;whiteSpace=wrap;" parent="1" vertex="1">
          <mxGeometry x="285.62" y="490" width="40" height="20" as="geometry" />
        </mxCell>
        <mxCell id="Pdf28RkhfNBAoE6ykQUz-185" value="" style="endArrow=classic;html=1;fillColor=#fff2cc;strokeColor=#d6b656;" parent="1" edge="1">
          <mxGeometry width="50" height="50" relative="1" as="geometry">
            <mxPoint x="1087" y="512" as="sourcePoint" />
            <mxPoint x="1088" y="284" as="targetPoint" />
            <Array as="points">
              <mxPoint x="979" y="512" />
              <mxPoint x="979" y="284" />
            </Array>
          </mxGeometry>
        </mxCell>
        <mxCell id="Pdf28RkhfNBAoE6ykQUz-195" value="" style="endArrow=classic;html=1;exitX=0.52;exitY=0.94;exitDx=0;exitDy=0;exitPerimeter=0;" parent="1" edge="1">
          <mxGeometry width="50" height="50" relative="1" as="geometry">
            <mxPoint x="143.5200000000001" y="198.94" as="sourcePoint" />
            <mxPoint x="735" y="199" as="targetPoint" />
          </mxGeometry>
        </mxCell>
        <mxCell id="Pdf28RkhfNBAoE6ykQUz-196" value="&lt;font style=&quot;font-size: 9px&quot;&gt;start()&lt;/font&gt;" style="text;html=1;strokeColor=none;fillColor=none;align=center;verticalAlign=middle;whiteSpace=wrap;rounded=0;" parent="1" vertex="1">
          <mxGeometry x="102.5" y="179.94" width="216.25" height="20" as="geometry" />
        </mxCell>
        <mxCell id="Pdf28RkhfNBAoE6ykQUz-201" value="" style="endArrow=classic;html=1;" parent="1" edge="1">
          <mxGeometry width="50" height="50" relative="1" as="geometry">
            <mxPoint x="920" y="529" as="sourcePoint" />
            <mxPoint x="1088" y="529" as="targetPoint" />
          </mxGeometry>
        </mxCell>
        <mxCell id="Pdf28RkhfNBAoE6ykQUz-127" value="" style="points=[];perimeter=orthogonalPerimeter;shadow=0;strokeWidth=1;fontStyle=1;strokeColor=#006900;" parent="1" vertex="1">
          <mxGeometry x="915" y="460" width="10" height="70" as="geometry" />
        </mxCell>
      </root>
    </mxGraphModel>
  </diagram>
</mxfile>
